<?xml version="1.0" encoding="UTF-8" standalone="no"?>
<!-- Created with Inkscape (http://www.inkscape.org/) -->

<svg
   xmlns:dc="http://purl.org/dc/elements/1.1/"
   xmlns:cc="http://creativecommons.org/ns#"
   xmlns:rdf="http://www.w3.org/1999/02/22-rdf-syntax-ns#"
   xmlns:svg="http://www.w3.org/2000/svg"
   xmlns="http://www.w3.org/2000/svg"
   xmlns:xlink="http://www.w3.org/1999/xlink"
   xmlns:sodipodi="http://sodipodi.sourceforge.net/DTD/sodipodi-0.dtd"
   xmlns:inkscape="http://www.inkscape.org/namespaces/inkscape"
   id="svg22306"
   version="1.1"
   inkscape:version="0.48.2 r9819"
   width="768"
   height="1004"
   sodipodi:docname="Default-Portrait.svg">
  <metadata
     id="metadata22312">
    <rdf:RDF>
      <cc:Work
         rdf:about="">
        <dc:format>image/svg+xml</dc:format>
        <dc:type
           rdf:resource="http://purl.org/dc/dcmitype/StillImage" />
        <dc:title></dc:title>
      </cc:Work>
    </rdf:RDF>
  </metadata>
  <defs
     id="defs22310">
    <linearGradient
       inkscape:collect="always"
       xlink:href="#linearGradient22839-1"
       id="linearGradient20943"
       gradientUnits="userSpaceOnUse"
       gradientTransform="matrix(7.111111,0,0,7.1111111,259.99999,0)"
       x1="36"
       y1="40.5"
       x2="36"
       y2="99.625" />
    <linearGradient
       id="linearGradient22839-1"
       inkscape:collect="always">
      <stop
         id="stop22841-4"
         offset="0"
         style="stop-color:#3bb2d0;stop-opacity:1" />
      <stop
         id="stop22843-8"
         offset="1"
         style="stop-color:#3993c5;stop-opacity:1" />
    </linearGradient>
    <linearGradient
       inkscape:collect="always"
       xlink:href="#linearGradient22071"
       id="linearGradient22067"
       gradientUnits="userSpaceOnUse"
       gradientTransform="translate(3.4545453e-6,-3.6363637e-6)"
       x1="800"
       y1="508"
       x2="1100"
       y2="818" />
    <linearGradient
       id="linearGradient22071">
      <stop
         id="stop22073"
         offset="0"
         style="stop-color:#3995c6;stop-opacity:0" />
      <stop
         id="stop22075"
         offset="1"
         style="stop-color:#2df7f2;stop-opacity:1;" />
    </linearGradient>
    <linearGradient
       inkscape:collect="always"
       xlink:href="#linearGradient22071"
       id="linearGradient22079"
       gradientUnits="userSpaceOnUse"
       gradientTransform="translate(-1024,-3.6363637e-6)"
       x1="800"
       y1="508"
       x2="1100"
       y2="818" />
    <linearGradient
       id="linearGradient22484">
      <stop
         id="stop22486"
         offset="0"
         style="stop-color:#3995c6;stop-opacity:0" />
      <stop
         id="stop22488"
         offset="1"
         style="stop-color:#2df7f2;stop-opacity:1;" />
    </linearGradient>
    <filter
       color-interpolation-filters="sRGB"
       inkscape:collect="always"
       id="filter23981-8"
       x="-0.10722605"
       width="1.2144521"
       y="-0.097478136"
       height="1.1949563">
      <feGaussianBlur
         inkscape:collect="always"
         stdDeviation="2.4369534"
         id="feGaussianBlur23983-7" />
    </filter>
    <filter
       color-interpolation-filters="sRGB"
       inkscape:collect="always"
       id="filter24172-9-1">
      <feGaussianBlur
         inkscape:collect="always"
         stdDeviation="1.5717193"
         id="feGaussianBlur24174-0-9" />
    </filter>
    <linearGradient
       inkscape:collect="always"
       xlink:href="#linearGradient22839-7-9"
       id="linearGradient22105"
       gradientUnits="userSpaceOnUse"
       gradientTransform="matrix(1.7066668,0,0,1.7066668,-24.480003,-31.200002)"
       x1="36"
       y1="32"
       x2="36"
       y2="72" />
    <linearGradient
       id="linearGradient22839-7-9">
      <stop
         id="stop22841-8-5"
         offset="0"
         style="stop-color:#3bb2d0;stop-opacity:1" />
      <stop
         id="stop22843-1-9"
         offset="1"
         style="stop-color:#3993c5;stop-opacity:1" />
    </linearGradient>
    <linearGradient
       inkscape:collect="always"
       xlink:href="#linearGradient22839-7-9"
       id="linearGradient22103"
       gradientUnits="userSpaceOnUse"
       gradientTransform="matrix(1.7066668,0,0,1.7066668,-24.480003,-31.200002)"
       x1="36"
       y1="32"
       x2="36"
       y2="72" />
    <linearGradient
       id="linearGradient22499">
      <stop
         id="stop22501"
         offset="0"
         style="stop-color:#3bb2d0;stop-opacity:1" />
      <stop
         id="stop22503"
         offset="1"
         style="stop-color:#3993c5;stop-opacity:1" />
    </linearGradient>
    <clipPath
       clipPathUnits="userSpaceOnUse"
       id="clipPath24155-0">
      <path
         inkscape:connector-curvature="0"
         id="path24157-9"
         d="m 355.77778,-358 c -2.46292,-0.027 -3.55556,2.28418 -3.55556,5.11112 l 0,38 c 0,3.70624 0.98392,4.89912 2.66667,6.88888 l 16.22222,19.33334 2.44445,0 c 5.73248,0 7.55555,-1.95965 7.55555,-7.77778 l 0,-4.22222 9.77778,-5.55556 c 2.86849,-1.63168 4,-4.2673 4,-8 l 0,-17.33333 c 0,-3.78005 -1.26827,-6.36081 -4.22222,-8 -10.65436,-5.91226 -21.32699,-11.67705 -32,-17.55556 -1.07994,-0.59491 -2.06793,-0.87822 -2.88889,-0.88889 z m -20.22222,11.33334 c -0.62315,-0.0469 -1.2349,0.0256 -2,0.44444 l -12.44445,6.66667 c -2.85719,1.42859 -4,4.304 -4,8 l 0,22 c 0,3.63083 2.74422,4.55899 4.88889,2 l 2.22222,-2.44445 12.66667,-15.11111 c 1.07786,-1.4081 1.55556,-2.8518 1.55556,-5.77777 l 0,-10.66667 c 0,-3.09264 -1.01944,-4.97031 -2.88889,-5.11111 z m -35.77778,19.33333 c -0.6875,0.0569 -1.28386,0.27307 -2,0.66667 0,0 -59.25802,32.59639 -89.33333,49.11111 l -3.55556,2 c -2.95922,1.62965 -4,4.21995 -4,8 l 0,5.33333 0,16.44445 0,10.66666 0,96 c 0,3.82294 1.04077,6.37051 4,8 l 51.33333,28.22223 L 238.66667,-82 l 0,2.22223 c 0,3.7801 1.2631,6.37039 4.22222,8 l 72.88889,40.22222 c 1.6735,0.92211 4.05757,1.16099 5.77778,0.22222 l 12.66666,-6.88889 c 2.39771,-1.3079 2.77511,-4.02773 2.88889,-7.33333 l 0,-7.11111 c 0,-3.78001 -1.04068,-6.37035 -4,-8 l -30.44444,-16.66667 c 0,0 -5.22095,-15.02381 -12.66667,-19.11111 l -40.66667,-22.44444 0,-14 c 0,-3.78011 -1.04677,-6.35931 -4,-8 -7.72223,-4.28992 -15.59199,-8.63359 -23.33333,-12.88889 l 20.44444,-24.44445 c 10.63721,5.89861 19.45684,10.83806 30.44445,16.88889 1.99541,1.09882 4.32321,0.47794 6.22222,-1.77778 15.73864,-18.5385 31.26903,-37.36054 46.88889,-56 L 349.55556,-232.22222 331.11111,-254 l -19.55555,10.88889 c -4.19217,2.31606 -4,4.78789 -4,8.66667 l 0,14 -9.77778,-5.33333 0,-4 c 0,-3.78011 -1.04078,-6.3704 -4,-8 L 274,-248.66666 c -4.97109,-2.69307 -3.91862,-5.35254 0.88889,-8 l 24.44444,-13.55556 13.33334,15.77778 12.22222,-6.88889 0,-6.88889 c 0,-3.78011 -1.04087,-6.3704 -4,-8 l -17.33333,-9.55555 0,-37.11111 c 0,-3.26133 -1.71532,-4.61512 -3.77778,-4.44445 z m 162,27.77778 c -1.21271,0 -2.46175,0.40171 -4.22222,1.33333 -4.08557,2.2409 -8.60642,4.66187 -12.22223,6.66667 -2.95381,1.63942 -4,4.21995 -4,8 l 0,32.22222 -28.88888,16 c -3.14207,1.73168 -4.00712,4.84409 -4,7.55556 l 0,21.55555 c 0,0 -7.65664,4.50489 -9.55556,5.55556 -2.95596,1.63552 -4,3.99767 -4,7.77778 l 0,10.66666 c 0,3.87878 3.67677,7.77778 7.55556,7.77778 l 11.77777,0 8.66667,-25.55556 22.88889,-12.66666 c 2.11099,-0.85611 4.10098,-0.47787 6,1.77778 L 458,-203.55555 c 2.15431,2.51035 4.47898,2.66688 6.88889,1.33333 L 482,-211.77777 482,-188 l -46.22222,25.55556 -21.55556,-12 -31.11111,37.11111 c -2.72869,3.25189 -3.77191,6.62029 -3.77778,9.77778 -0.0178,9.44864 -0.0199,18.50605 0,27.77778 0,3.7801 1.07909,6.30267 4,8 5.70225,3.31354 11.51535,6.27239 16.66667,9.11111 2.9179,1.60795 4.8018,1.50896 7.77778,0 5.83289,-2.95749 11.73609,-6.55943 17.55555,-9.77778 7.88365,9.54778 16.05835,18.99291 23.11112,27.33333 1.98239,2.34427 4.21329,2.33917 6.44444,1.11111 l 52.22222,-28.66666 c 2.95965,-1.62886 4,-4.2199 4,-8 l 0,-48.66667 c 0,-3.90138 -1.03726,-4.91265 -2.88889,-7.11111 l -19.11111,-22.66667 8.22222,-4.44444 c 2.41404,-1.31724 4.72961,-1.4459 6.88889,1.11111 l 6.88889,8.22222 0,-93.33333 c 0,-3.78011 -1.04077,-6.37035 -4,-8 -13.61836,-7.48698 -27.28694,-14.70537 -40.88889,-22.22222 -2.02694,-1.07069 -3.27759,-1.77778 -4.44444,-1.77778 z"
         style="font-size:medium;font-style:normal;font-variant:normal;font-weight:normal;font-stretch:normal;text-indent:0;text-align:start;text-decoration:none;line-height:normal;letter-spacing:normal;word-spacing:normal;text-transform:none;direction:ltr;block-progression:tb;writing-mode:lr-tb;text-anchor:start;baseline-shift:baseline;color:#000000;fill:url(#linearGradient24159);fill-opacity:1;fill-rule:nonzero;stroke:none;stroke-width:0.5825243;marker:none;visibility:visible;display:inline;overflow:visible;enable-background:accumulate;font-family:Sans;-inkscape-font-specification:Sans" />
    </clipPath>
    <filter
       color-interpolation-filters="sRGB"
       inkscape:collect="always"
       id="filter24172-3">
      <feGaussianBlur
         inkscape:collect="always"
         stdDeviation="1.5717193"
         id="feGaussianBlur24174-4" />
    </filter>
    <filter
       color-interpolation-filters="sRGB"
       inkscape:collect="always"
       id="filter23981-8-01"
       x="-0.10722605"
       width="1.2144521"
       y="-0.097478136"
       height="1.1949563">
      <feGaussianBlur
         inkscape:collect="always"
         stdDeviation="2.4369534"
         id="feGaussianBlur23983-7-5" />
    </filter>
    <linearGradient
       inkscape:collect="always"
       xlink:href="#linearGradient22839-1"
       id="linearGradient22653"
       gradientUnits="userSpaceOnUse"
       gradientTransform="matrix(5.3333332,0,0,9.5448604,195,0)"
       x1="36"
       y1="40.5"
       x2="36"
       y2="99.625" />
    <linearGradient
       inkscape:collect="always"
       xlink:href="#linearGradient22839-7-9"
       id="linearGradient22671"
       gradientUnits="userSpaceOnUse"
       gradientTransform="matrix(1.7066668,0,0,1.7066668,-24.480003,-31.200002)"
       x1="36"
       y1="32"
       x2="36"
       y2="72" />
    <linearGradient
       inkscape:collect="always"
       xlink:href="#linearGradient22839-7-9"
       id="linearGradient22673"
       gradientUnits="userSpaceOnUse"
       gradientTransform="matrix(1.7066668,0,0,1.7066668,-24.480003,-31.200002)"
       x1="36"
       y1="32"
       x2="36"
       y2="72" />
    <linearGradient
       inkscape:collect="always"
       xlink:href="#linearGradient22071"
       id="linearGradient22675"
       gradientUnits="userSpaceOnUse"
       gradientTransform="matrix(0.75,0,0,1,2.590909e-6,-3.6363637e-6)"
       x1="800"
       y1="508"
       x2="1100"
       y2="818" />
    <linearGradient
       inkscape:collect="always"
       xlink:href="#linearGradient22071"
       id="linearGradient22677"
       gradientUnits="userSpaceOnUse"
       gradientTransform="matrix(0.75,0,0,1,-768,-3.6363637e-6)"
       x1="800"
       y1="508"
       x2="1100"
       y2="818" />
  </defs>
  <sodipodi:namedview
     pagecolor="#ffffff"
     bordercolor="#666666"
     borderopacity="1"
     objecttolerance="10"
     gridtolerance="10"
     guidetolerance="10"
     inkscape:pageopacity="0"
     inkscape:pageshadow="2"
     inkscape:window-width="1555"
     inkscape:window-height="886"
     id="namedview22308"
     showgrid="false"
     inkscape:zoom="0.5"
     inkscape:cx="75.879623"
     inkscape:cy="423.77131"
     inkscape:window-x="0"
     inkscape:window-y="0"
     inkscape:window-maximized="0"
     inkscape:current-layer="svg22306"
     showguides="false"
     inkscape:guide-bbox="true">
    <inkscape:grid
       type="xygrid"
       id="grid22530" />
    <sodipodi:guide
       orientation="1,0"
       position="768,32"
       id="guide22679" />
    <sodipodi:guide
       orientation="0,1"
       position="15,0"
       id="guide22681" />
  </sodipodi:namedview>
  <rect
     y="0"
     x="0"
     height="1004"
     width="768"
     id="rect23996"
     style="color:#000000;fill:url(#linearGradient22653);fill-opacity:1;fill-rule:nonzero;stroke:none;stroke-width:0.5825243;marker:none;visibility:visible;display:inline;overflow:visible;enable-background:accumulate"
     rx="0"
     ry="0" />
  <g
     id="g22061"
     transform="matrix(1,0,0,-1,0,748)"
     style="opacity:0.5">
    <rect
       style="opacity:0.73786406;color:#000000;fill:url(#linearGradient22675);fill-opacity:1;fill-rule:nonzero;stroke:none;stroke-width:2;marker:none;visibility:visible;display:inline;overflow:visible;enable-background:accumulate"
       id="rect22063"
       width="355.5"
       height="390"
       x="412.5"
       y="358" />
    <rect
       y="358"
       x="-355.5"
       height="390"
       width="355.5"
       id="rect22077"
       style="opacity:0.73786406;color:#000000;fill:url(#linearGradient22677);fill-opacity:1;fill-rule:nonzero;stroke:none;stroke-width:2;marker:none;visibility:visible;display:inline;overflow:visible;enable-background:accumulate"
       transform="scale(-1,1)" />
  </g>
  <g
     id="g22655"
     transform="translate(1432.0038,47.451884)">
    <path
       transform="matrix(3.0466443,0,0,3.0466443,-1157.6792,289.94285)"
       sodipodi:nodetypes="cccsccccsccccsccc"
       style="font-size:medium;font-style:normal;font-variant:normal;font-weight:normal;font-stretch:normal;text-indent:0;text-align:start;text-decoration:none;line-height:normal;letter-spacing:normal;word-spacing:normal;text-transform:none;direction:ltr;block-progression:tb;writing-mode:lr-tb;text-anchor:start;baseline-shift:baseline;opacity:0.5;color:#000000;fill:#0f5e86;fill-opacity:1;fill-rule:nonzero;stroke:none;stroke-width:20;marker:none;visibility:visible;display:inline;overflow:visible;filter:url(#filter23981-8);enable-background:accumulate;font-family:Sans;-inkscape-font-specification:Sans"
       d="m 36.008523,6.000057 c -0.458916,-0.003 -0.918031,0.112822 -1.321021,0.332385 L 10.142071,19.849479 c -0.425179,0.23346 -0.7755269,0.58872 -1.0227267,1.005683 -0.2471997,0.416962 -0.3912486,0.895619 -0.392045,1.380682 l 0,27.519849 c 0.00164,0.97011 0.5644167,1.919453 1.4147717,2.386365 L 34.687502,65.659095 C 35.087612,65.878725 35.543807,66 36,66 c 0.456194,0 0.912387,-0.121275 1.3125,-0.340905 L 61.85793,52.142058 c 0.850354,-0.466912 1.413178,-1.416255 1.414771,-2.386365 l 0,-27.519849 C 63.271875,21.750781 63.12785,21.272124 62.880656,20.855162 62.633462,20.438199 62.283108,20.082939 61.85793,19.849479 L 37.3125,6.332442 C 36.914495,6.115617 36.46176,6.000207 36.008523,6.000057 z"
       id="path23998"
       inkscape:connector-curvature="0" />
    <path
       transform="matrix(0.42843435,0,0,0.42843435,-1269.0721,289.94285)"
       inkscape:connector-curvature="0"
       id="path24008"
       d="m 322,348.78125 0,5 0,2.09375 0,5 c 0.006,3.44934 1.11714,7.03494 2.875,10 1.75787,2.96507 4.32025,5.46484 7.34375,7.125 l 174.4375,96 c 2.86571,1.56134 6.08035,2.45883 9.34375,2.4375 3.22302,-10e-4 6.51349,-0.89563 9.34375,-2.4375 l 174.4375,-96 c 3.02349,-1.66016 5.58593,-4.15993 7.34375,-7.125 1.75782,-2.96506 2.86913,-6.55066 2.875,-10 l 0,-5 0,-2.09375 0,-5 c -0.006,3.44934 -1.11718,7.03494 -2.875,10 -1.75782,2.96507 -4.32026,5.43359 -7.34375,7.09375 l -174.4375,96 c -2.83026,1.54187 -6.12073,2.46768 -9.34375,2.46875 -3.2634,0.0213 -6.47804,-0.90741 -9.34375,-2.46875 l -174.4375,-96 c -3.0235,-1.66016 -5.58588,-4.12868 -7.34375,-7.09375 -1.75786,-2.96506 -2.86934,-6.55066 -2.875,-10 z"
       style="font-size:medium;font-style:normal;font-variant:normal;font-weight:normal;font-stretch:normal;text-indent:0;text-align:start;text-decoration:none;line-height:normal;letter-spacing:normal;word-spacing:normal;text-transform:none;direction:ltr;block-progression:tb;writing-mode:lr-tb;text-anchor:start;baseline-shift:baseline;opacity:0.5;color:#000000;fill:#0080c0;fill-opacity:1;fill-rule:nonzero;stroke:none;stroke-width:0.5825243;marker:none;visibility:visible;display:inline;overflow:visible;filter:url(#filter24172-9-1);enable-background:accumulate;font-family:Sans;-inkscape-font-specification:Sans" />
    <path
       inkscape:connector-curvature="0"
       id="path24000"
       d="m -1047.974,308.2229 c -1.3986,-0.009 -2.7978,0.34373 -4.026,1.01266 l -74.8046,41.1816 c -1.2958,0.71127 -2.3635,1.79362 -3.1169,3.06396 -0.7533,1.27034 -1.1923,2.72863 -1.1948,4.20644 l 0,83.8432 c 0,2.95558 1.7201,5.84789 4.3117,7.2704 l 74.8046,41.1816 c 1.2194,0.66914 2.6097,1.03862 4,1.03862 1.3903,0 2.7806,-0.36948 4,-1.03862 l 74.80461,-41.1816 c 2.59152,-1.42251 4.30679,-4.31482 4.31165,-7.2704 l 0,-83.8432 c -0.003,-1.47781 -0.44146,-2.9361 -1.19481,-4.20644 -0.75334,-1.27034 -1.82109,-2.35269 -3.11685,-3.06396 L -1044,309.23556 c -1.213,-0.66059 -2.5927,-1.0122 -3.974,-1.01266 z"
       style="font-size:medium;font-style:normal;font-variant:normal;font-weight:normal;font-stretch:normal;text-indent:0;text-align:start;text-decoration:none;line-height:normal;letter-spacing:normal;word-spacing:normal;text-transform:none;direction:ltr;block-progression:tb;writing-mode:lr-tb;text-anchor:start;baseline-shift:baseline;color:#000000;fill:#ffffff;fill-opacity:1;fill-rule:nonzero;stroke:none;stroke-width:20;marker:none;visibility:visible;display:inline;overflow:visible;enable-background:accumulate;font-family:Sans;-inkscape-font-specification:Sans"
       sodipodi:nodetypes="cccsccccsccccsccc" />
    <g
       transform="matrix(3.0466443,0,0,3.0466443,-1157.6792,289.94285)"
       id="g24002"
       style="color:#000000;fill:url(#linearGradient22673);fill-opacity:1;fill-rule:nonzero;stroke:none;stroke-width:0.5825243;marker:none;visibility:visible;display:inline;overflow:visible;enable-background:accumulate">
      <path
         style="font-size:medium;font-style:normal;font-variant:normal;font-weight:normal;font-stretch:normal;text-indent:0;text-align:start;text-decoration:none;line-height:normal;letter-spacing:normal;word-spacing:normal;text-transform:none;direction:ltr;block-progression:tb;writing-mode:lr-tb;text-anchor:start;baseline-shift:baseline;color:#000000;fill:url(#linearGradient22671);fill-opacity:1;fill-rule:nonzero;stroke:none;stroke-width:0.5825243;marker:none;visibility:visible;display:inline;overflow:visible;enable-background:accumulate;font-family:Sans;-inkscape-font-specification:Sans"
         d="m 35.96875,11.53125 c -0.346348,-0.0038 -0.5,0.321212 -0.5,0.71875 l 0,5.34375 c 0,0.52119 0.138363,0.68894 0.375,0.96875 l 2.28125,2.71875 0.34375,0 c 0.80613,0 1.0625,-0.275575 1.0625,-1.09375 l 0,-0.59375 1.375,-0.78125 c 0.403381,-0.229455 0.5625,-0.60009 0.5625,-1.125 l 0,-2.4375 c 0,-0.53157 -0.178351,-0.894488 -0.59375,-1.125 -1.498269,-0.831412 -2.999107,-1.642085 -4.5,-2.46875 -0.151866,-0.08366 -0.290802,-0.1235 -0.40625,-0.125 z M 33.125,13.125 c -0.08763,-0.0066 -0.173658,0.0036 -0.28125,0.0625 l -1.75,0.9375 c -0.401793,0.200895 -0.5625,0.60525 -0.5625,1.125 l 0,3.09375 c 0,0.510585 0.385905,0.641108 0.6875,0.28125 l 0.3125,-0.34375 1.78125,-2.125 c 0.151574,-0.198015 0.21875,-0.401035 0.21875,-0.8125 l 0,-1.5 c 0,-0.434902 -0.143358,-0.69895 -0.40625,-0.71875 z m -5.03125,2.71875 c -0.09668,0.008 -0.180542,0.0384 -0.28125,0.09375 0,0 -8.333159,4.583868 -12.5625,6.90625 l -0.5,0.28125 c -0.41614,0.22917 -0.5625,0.59343 -0.5625,1.125 l 0,0.75 0,2.3125 0,1.5 0,13.5 c 0,0.5376 0.146358,0.895853 0.5625,1.125 l 7.21875,3.96875 -2.46875,2.9375 0,0.3125 c 0,0.531577 0.177624,0.895837 0.59375,1.125 l 10.25,5.65625 c 0.235336,0.129672 0.570596,0.163264 0.8125,0.03125 L 32.9375,56.5 c 0.337177,-0.183923 0.39025,-0.5664 0.40625,-1.03125 l 0,-1 c 0,-0.531563 -0.146346,-0.89583 -0.5625,-1.125 L 28.5,51 c 0,0 -0.734196,-2.112723 -1.78125,-2.6875 L 21,45.15625 21,43.1875 c 0,-0.531577 -0.147203,-0.894278 -0.5625,-1.125 -1.085939,-0.60327 -2.192624,-1.214098 -3.28125,-1.8125 l 2.875,-3.4375 c 1.495857,0.829492 2.736117,1.524102 4.28125,2.375 0.280605,0.154522 0.607952,0.06721 0.875,-0.25 2.213246,-2.606977 4.397207,-5.253826 6.59375,-7.875 L 35.09375,29.21875 32.5,26.15625 29.75,27.6875 c -0.589523,0.325696 -0.5625,0.673297 -0.5625,1.21875 l 0,1.96875 -1.375,-0.75 0,-0.5625 c 0,-0.531577 -0.146359,-0.895837 -0.5625,-1.125 l -2.78125,-1.53125 c -0.699059,-0.378713 -0.551056,-0.7527 0.125,-1.125 l 3.4375,-1.90625 1.875,2.21875 1.71875,-0.96875 0,-0.96875 c 0,-0.531578 -0.146373,-0.895838 -0.5625,-1.125 l -2.4375,-1.34375 0,-5.21875 c 0,-0.458624 -0.241216,-0.649 -0.53125,-0.625 z M 50.875,19.75 c -0.170537,0 -0.346184,0.05649 -0.59375,0.1875 -0.574533,0.315127 -1.210277,0.655575 -1.71875,0.9375 C 48.14712,21.105543 48,21.468431 48,22 l 0,4.53125 -4.0625,2.25 c -0.441853,0.243518 -0.5635,0.6812 -0.5625,1.0625 l 0,3.03125 c 0,0 -1.076715,0.6335 -1.34375,0.78125 -0.415682,0.229995 -0.5625,0.562173 -0.5625,1.09375 l 0,1.5 c 0,0.545453 0.517046,1.09375 1.0625,1.09375 l 1.65625,0 L 45.40625,33.75 48.625,31.96875 c 0.296858,-0.12039 0.5767,-0.0672 0.84375,0.25 l 0.875,1.03125 c 0.30295,0.353018 0.629856,0.37503 0.96875,0.1875 l 2.40625,-1.34375 0,3.34375 -6.5,3.59375 -3.03125,-1.6875 -4.375,5.21875 c -0.383723,0.457297 -0.530425,0.930978 -0.53125,1.375 -0.0025,1.328715 -0.0028,2.602413 0,3.90625 0,0.531577 0.151746,0.886313 0.5625,1.125 0.801879,0.465967 1.619346,0.882056 2.34375,1.28125 0.410329,0.226118 0.675253,0.212198 1.09375,0 0.820251,-0.415897 1.650388,-0.92242 2.46875,-1.375 1.108638,1.342657 2.258205,2.670878 3.25,3.84375 0.278774,0.329662 0.592494,0.328945 0.90625,0.15625 L 57.25,48.84375 c 0.416201,-0.229058 0.5625,-0.593423 0.5625,-1.125 l 0,-6.84375 c 0,-0.548632 -0.145865,-0.690842 -0.40625,-1 l -2.6875,-3.1875 1.15625,-0.625 c 0.339474,-0.185236 0.665101,-0.20333 0.96875,0.15625 l 0.96875,1.15625 0,-13.125 c 0,-0.531578 -0.146359,-0.89583 -0.5625,-1.125 C 55.334918,22.072143 53.412774,21.057058 51.5,20 51.214961,19.849435 51.039089,19.75 50.875,19.75 z"
         id="path24004"
         inkscape:connector-curvature="0" />
    </g>
    <path
       transform="matrix(0.42843435,0,0,0.42843435,-1200.5226,478.45397)"
       inkscape:connector-curvature="0"
       id="path24006"
       d="m 355.78125,-364 c -2.46292,-0.027 -3.5625,2.29806 -3.5625,5.125 l 0,6 0,1.09375 0,6 c 0,-2.82694 1.09958,-5.12077 3.5625,-5.09375 0.82096,0.0107 1.79506,0.28008 2.875,0.875 10.67302,5.87851 21.34564,11.65024 32,17.5625 2.95395,1.6392 4.21875,4.21995 4.21875,8 l 0,-6 0,-1.125 0,-6 c 0,-3.78005 -1.26481,-6.3608 -4.21875,-8 -10.65436,-5.91226 -21.32699,-11.68399 -32,-17.5625 -1.07994,-0.59492 -2.05404,-0.86433 -2.875,-0.875 z m -20.65625,11.3125 c -0.14246,-0.005 -0.30552,-9.5e-4 -0.46875,0.0312 -0.32647,0.0647 -0.71121,0.22808 -1.09375,0.4375 l -12.4375,6.65625 c -2.85719,1.42859 -4,4.304 -4,8 l 0,6 0,1.125 0,6 c 0,-3.696 1.14281,-6.57141 4,-8 l 12.4375,-6.6875 c 0.7651,-0.41884 1.37685,-0.48443 2,-0.4375 1.86945,0.1408 2.875,2.03236 2.875,5.125 l 0,-6 0,-1.125 0,-6 c 0,-3.09263 -1.00555,-4.95295 -2.875,-5.09375 -0.1558,-0.0118 -0.29504,-0.0261 -0.4375,-0.0312 z m -35.34375,19.34375 c -0.6875,0.0569 -1.28386,0.2939 -2,0.6875 0,0 -59.26843,32.57904 -89.34375,49.09375 l -3.5625,2 c -2.95922,1.62966 -4,4.21995 -4,8 l 0,5.34375 0,0.65625 0,1.125 0,4.21875 0,1.78125 c 0,-3.78005 1.04078,-6.37035 4,-8 l 3.5625,-2 c 30.07531,-16.51472 89.34375,-49.125 89.34375,-49.125 0.71615,-0.3936 1.3125,-0.59936 2,-0.65625 2.06246,-0.17067 3.78125,1.17617 3.78125,4.4375 l 0,-6 0,-1.09375 0,-6 c 0,-3.26133 -1.71879,-4.63942 -3.78125,-4.46875 z m 162,27.78125 c -1.21271,0 -2.45828,0.41212 -4.21875,1.34375 -4.08556,2.2409 -8.60294,4.65145 -12.21875,6.65625 -2.95381,1.63942 -4,4.21996 -4,8 l 0,6 0,1.125 0,6 c 0,-3.78005 1.04619,-6.36058 4,-8 3.61581,-2.0048 8.13318,-4.4466 12.21875,-6.6875 1.76047,-0.93163 3.00604,-1.3125 4.21875,-1.3125 1.16686,0 2.41056,0.71053 4.4375,1.78125 13.60195,7.51686 27.28789,14.73177 40.90625,22.21875 2.95922,1.62965 4,4.21989 4,8 l 0,-6 0,-1.125 0,-6 c 0,-3.78011 -1.04077,-6.37034 -4,-8 -13.61836,-7.48698 -27.3043,-14.70189 -40.90625,-22.21875 -2.02694,-1.07068 -3.27065,-1.78125 -4.4375,-1.78125 z m -158.21875,13.78125 0,6 0,1.125 0,6 17.3125,9.53125 c 2.8979,1.59588 3.95745,4.12747 4,7.78125 l 0,-6 0,-0.875 0,-6 c 0,-3.78011 -1.04088,-6.37041 -4,-8 l -17.3125,-9.5625 z M 331.125,-260 l -19.5625,10.875 c -4.19217,2.31606 -4,4.80872 -4,8.6875 l 0,4.34375 0,0.0937 c -0.005,0.49326 0,1.01708 0,1.5625 l 0,4.4375 c 0.14244,-2.44013 0.85588,-4.26295 4,-6 l 19.5625,-10.875 14.4375,16.875 4,-2.21875 -3.46875,-4.09375 3.46875,-1.90625 L 331.125,-260 z m 110.21875,2.65625 -28.90625,16 c -3.14206,1.73168 -4.00711,4.85104 -4,7.5625 l 0,6 0,1.125 0,6 c -0.007,-2.71147 0.85793,-5.83082 4,-7.5625 l 28.90625,-16 0,-6 0,-1.125 0,-6 z m -170.6875,4.90625 0.21875,6.875 c -0.1642,1.29353 0.74446,2.71035 3.125,4 l 19.78125,10.90625 c 2.95922,1.6296 4,4.2199 4,8 l 0,4 9.78125,5.3125 0,-6 0,-1.09375 0,-6 -9.78125,-5.34375 0,-4 c 0,-3.7801 -1.04078,-6.37039 -4,-8 l -13.90625,-7.65625 -9.03125,-0.84375 -0.1875,-0.15625 z m 9.21875,1 16.15625,1.46875 L 278.875,-252 l 1,0.5625 z m 128.5625,39.21875 c 0,0 -7.66359,4.51184 -9.5625,5.5625 -2.95596,1.63552 -4,4.00115 -4,7.78125 l 0,6 0,1.09375 0,6 c 0,-3.7801 1.04404,-6.14573 4,-7.78125 1.89892,-1.05067 9.5625,-5.5625 9.5625,-5.5625 l 0,-6 0,-1.09375 0,-6 z M 482,-194 l -46.21875,25.5625 -15.125,-8.4375 -4.4375,-2.46875 -2,4.90625 -6,1.09375 -25.09375,30 c -2.7287,3.25189 -3.77538,6.62376 -3.78125,9.78125 -0.004,2.03693 -2.7e-4,4.01099 0,6 5e-5,0.37294 3.2e-4,0.74957 0,1.125 -10e-4,2.0127 0.002,3.9977 0,6 0.006,-3.15749 1.05255,-6.52936 3.78125,-9.78125 l 31.09375,-37.125 21.5625,12 L 482,-180.875 l 0,-6 0,-1.125 0,-6 z m 7.125,14.875 0,1.125 0,6 19.09375,22.65625 c 1.85163,2.19846 2.90625,3.22362 2.90625,7.125 l 0,-6 0,-1.125 0,-6 c 0,-3.90139 -1.05462,-4.8953 -2.90625,-7.09375 l -8.59375,-13.6875 -10.5,-3 z M 222,-153.78125 l 0,1.125 0,6 c 7.74134,4.2553 15.62152,8.58508 23.34375,12.875 2.95322,1.64069 4,4.2199 4,8 l 0,-6 0,-1.09375 0,-6 c 0,-3.7801 -1.04677,-6.35931 -4,-8 -6.39664,-3.55351 3.5985,-1.35975 -2.84375,-4.90625 l -20.5,-2 z m 27.34375,28.90625 0,6 0,1.09375 0,6 3.28125,1.8125 3.09375,1.6875 0.5,0.28125 2.5,1.375 7.40625,4.09375 0.0312,0 23.8438,13.1875 c 7.44572,4.087303 12.65625,19.125 12.65625,19.125 L 333.125,-53.5625 c 2.95932,1.629653 4,4.219996 4,8 l 0,-6 0,-1.09375 0,-6 c 0,-3.780004 -1.04068,-6.370347 -4,-8 l -30.46875,-16.6875 c 0,0 -5.21053,-15.00645 -12.65625,-19.09375 l -40.65625,-22.4375 z m 3.4375,20.09375 -14.125,16.78125 0,2.21875 c 0,1.18685 0.16364,2.277586 0.4375,3.25 l -0.4375,0.53125 0,2.21875 c 0,1.499008 0.26325,2.860907 0.6875,4 l 16.875,-20 0,-6 0,-1.09375 -3.4375,-1.90625 z"
       clip-path="url(#clipPath24155-0)"
       style="font-size:medium;font-style:normal;font-variant:normal;font-weight:normal;font-stretch:normal;text-indent:0;text-align:start;text-decoration:none;line-height:normal;letter-spacing:normal;word-spacing:normal;text-transform:none;direction:ltr;block-progression:tb;writing-mode:lr-tb;text-anchor:start;baseline-shift:baseline;opacity:0.5;color:#000000;fill:#0080c0;fill-opacity:1;fill-rule:nonzero;stroke:none;stroke-width:0.5825243;marker:none;visibility:visible;display:inline;overflow:visible;filter:url(#filter24172-3);enable-background:accumulate;font-family:Sans;-inkscape-font-specification:Sans" />
    <path
       inkscape:connector-curvature="0"
       id="path21773"
       d="m -1212.0625,520.125 c -1.6266,0 -2.1563,0.56088 -2.1563,2.1875 l 0,67.75 c 0,1.62662 0.5297,2.1875 2.1563,2.1875 l 6.0312,0 c 1.3254,0 1.9462,-0.3931 2.125,-1.40625 l 0,-57.15625 18.0313,31.71875 c 0.719,1.26498 1.4781,1.8993 2.5625,1.90625 1.0844,0.007 1.8435,-0.64127 2.5625,-1.90625 l 18.0312,-31.71875 0,56.375 c 0,1.62662 0.5609,2.1875 2.1875,2.1875 l 5.9688,0 c 1.6266,0 2.1562,-0.56088 2.1562,-2.1875 l 0,-67.75 c 0,-1.62662 -0.5296,-2.1875 -2.1562,-2.1875 l -9.3125,0 c -1.3526,0 -2.2341,0.58816 -2.9688,1.90625 l -16.4687,29 -16.5,-29.0625 c -0.6131,-1.07944 -0.8028,-1.84375 -2.1563,-1.84375 l -10.0937,0 z m 179.4687,0 c -1.6266,0 -2.1562,0.52963 -2.1562,2.15625 l 0,67.875 c 0,1.38228 0.855,2.09375 2.1875,2.09375 l 18.6875,0 c 14.22399,0 25.75,-6.65101 25.75,-20.875 0,-8.17796 -3.99982,-15.80107 -12.3125,-18.96875 0,0 6.75928,-3.98456 6.90625,-12.1875 -0.12992,-14.05166 -11.60675,-20.09375 -25.74995,-20.09375 l -13.3126,0 z m 8.1563,10.3125 5.1563,0 c 8.5343,0 15.4375,1.49686 15.4375,10.03125 0,4.07164 -1.7839,6.75501 -4.1563,8.53125 -5.0473,3.00147 -10.473,2.03125 -16.4375,2.03125 l 0,-20.59375 z m 97.5,10.28125 c -1.45888,0 -2.02293,0.90772 -1.21875,1.96875 l 16.21875,23.03125 -17.3125,24.5625 c -0.80418,1.06103 -0.24013,1.96875 1.21875,1.96875 l 8.75,0 c 0.90762,0 1.4244,-0.47816 1.96875,-1.25 l 11.59375,-16.4375 11.625,16.4375 c 0.54435,0.77184 1.06113,1.25 1.96875,1.25 l 8.75,0 c 1.45888,0 2.02293,-0.90772 1.21875,-1.96875 l -17.3125,-24.5625 16.25,-23.03125 c 0.80418,-1.06103 0.20888,-1.96875 -1.25,-1.96875 l -8.75,0 c -0.90762,0 -1.4244,0.47816 -1.96875,1.25 l -10.5,14.90625 -10.53125,-14.90625 c -0.54435,-0.77184 -1.06113,-1.25 -1.96875,-1.25 l -8.75,0 z m -192.125,0.0312 c -14.224,0 -25.75,11.52601 -25.75,25.75 0,14.22399 11.526,25.75001 25.75,25.75 l 18.7187,0 c 1.1488,-10e-6 1.625,-0.85562 1.625,-2.03125 l 0,-47.3125 c 0,-1.62662 -0.5608,-2.15625 -2.1875,-2.15625 l -18.1562,0 z m 32.25,0 c -1.1936,-1.7e-4 -1.625,0.70171 -1.625,2.125 l 0,67.8125 c 0,1.62662 0.5498,2.15626 2.1875,2.15625 l 6.25,0 c 1.4905,0 1.9091,-0.63286 1.9062,-2.09375 l -0.031,-18.53125 c 3.2948,0.0198 6.8247,0.0168 10.0313,0.0312 14.1631,0.0638 25.75,-11.36094 25.75,-25.75 0,-14.22399 -11.526,-25.76437 -25.75,-25.75 -6.2573,0.006 -12.4681,10e-4 -18.7188,0 z m 130.96875,0 c -14.22399,0 -25.78125,11.52601 -25.78125,25.75 0,14.22399 11.55726,25.75 25.78125,25.75 14.22399,0 25.75,-11.52601 25.75,-25.75 0,-14.22399 -11.52601,-25.75 -25.75,-25.75 z m -163.21875,10.28125 10.0312,0 0,3.71875 0,24.5625 0,3.71875 -10.0312,0 c -8.5344,0 -15.4375,-7.99686 -15.4375,-16.53125 0,-8.53439 6.9031,-15.46875 15.4375,-15.46875 z m 40.9375,0 10.0312,0 c 8.5344,0 15.4688,6.93436 15.4688,15.46875 0,8.53439 -6.9344,16.53125 -15.4688,16.53125 l -10.0312,0 0,-32 z m 122.28125,0 c 8.53439,0 15.4375,6.93436 15.4375,15.46875 0,8.53439 -6.90311,16.53125 -15.4375,16.53125 -8.53439,0 -15.46875,-7.99686 -15.46875,-16.53125 0,-8.53439 6.93436,-15.46875 15.46875,-15.46875 z m -68.59375,7.59375 10.5625,0 c 8.5344,0 15.46875,4.21561 15.46875,12.75 0,8.53439 -6.93435,11.65625 -15.46875,11.65625 -3.5094,5e-5 -7.0417,0 -10.5625,0 l 0,-24.40625 z"
       clip-path="none"
       style="opacity:0.5;color:#000000;fill:#0f5e86;fill-opacity:1;fill-rule:nonzero;stroke:none;stroke-width:60.93288422;marker:none;visibility:visible;display:inline;overflow:visible;filter:url(#filter23981-8-01);enable-background:accumulate" />
    <g
       inkscape:export-ydpi="300"
       inkscape:export-xdpi="300"
       inkscape:export-filename="/Users/saman/work_repos/graphics/mapbox/flyer/mapbox_flier_front_8.5x5.5.png"
       style="fill:#ffffff;fill-opacity:1;display:inline"
       transform="matrix(0.54220664,0,0,0.54220664,-1255.9674,757.19278)"
       id="g25745-8-7">
      <path
         inkscape:connector-curvature="0"
         style="color:#000000;fill:#ffffff;fill-opacity:1;fill-rule:nonzero;stroke:none;stroke-width:50;marker:none;visibility:visible;display:inline;overflow:visible;enable-background:accumulate"
         clip-path="none"
         d="m 252.5,-403.39664 c -26.23353,0 -47.5,21.26647 -47.5,47.5 0,26.23353 21.26647,47.50004 47.5,47.50002 l 34.53125,-2e-5 c 2.11867,-1e-5 2.96875,-1.58176 2.96875,-3.75 l 0,-87.25 c 0,-3 -1,-4 -4,-4 z m 0,19 18.5,0 0,6.84375 0,45.3125 0,6.84375 -18.5,0 c -15.74011,0 -28.5,-14.75989 -28.5,-30.5 0,-15.74011 12.75989,-28.5 28.5,-28.5 z"
         id="path24740-2-4"
         sodipodi:nodetypes="csssssccsccccsss" />
      <path
         inkscape:connector-curvature="0"
         style="color:#000000;fill:#ffffff;fill-opacity:1;fill-rule:nonzero;stroke:none;stroke-width:50;marker:none;visibility:visible;display:inline;overflow:visible;enable-background:accumulate"
         d="m 81,-441.39664 c -3,0 -4,1 -4,4 l 0,125 c 0,3 1,4 4,4 l 11.125,0 c 2.444295,0 3.545198,-0.69394 3.875,-2.5625 l 0,-105.4375 33.25,58.5 c 1.32604,2.33303 2.75,3.48718 4.75,3.5 2,0.0128 3.42396,-1.16697 4.75,-3.5 l 33.25,-58.5 0,104 c 0,3 1,4 4,4 l 11,0 c 3,0 4,-1 4,-4 l 0,-125 c 0,-3 -1,-4 -4,-4 l -17.125,0 c -2.49457,0 -4.14512,1.06903 -5.5,3.5 l -30.375,53.5 -30.4375,-53.59375 c -1.13065,-1.99082 -1.50429,-3.40625 -4.0005,-3.40625 z"
         id="path24742-8-9"
         sodipodi:nodetypes="sssssccssscsssssscscscs" />
      <path
         inkscape:connector-curvature="0"
         style="color:#000000;fill:#ffffff;fill-opacity:1;fill-rule:nonzero;stroke:none;stroke-width:50;marker:none;visibility:visible;display:inline;overflow:visible;enable-background:accumulate"
         clip-path="none"
         d="m 311.96875,-403.39664 c -2.20141,-3.2e-4 -2.96875,1.3125 -2.96875,3.9375 l 0,125.0625 c 0,3 0.99597,4 4.01632,3.99999 l 11.50957,0 c 2.7489,0 3.54605,-1.18066 3.54079,-3.875 L 328,-308.45914 c 6.0766,0.0365 12.586,0.0358 18.5,0.0625 26.12125,0.11774 47.5,-20.96203 47.5,-47.5 0,-26.23353 -21.26648,-47.5265 -47.5,-47.5 -11.54051,0.0117 -23.00312,0.002 -34.53125,0 z m 16.03125,19 18.5,0 c 15.74011,0 28.5,12.75989 28.5,28.5 0,15.74011 -12.75989,30.5 -28.5,30.5 l -18.5,0 z"
         id="path24744-0-3"
         sodipodi:nodetypes="sssscscsscssscsss" />
      <path
         clip-path="none"
         id="path24746-2-46"
         d="m 553.5,-403.39664 c 26.23353,0 47.5,21.26647 47.5,47.5 0,26.23353 -21.26647,47.5 -47.5,47.5 -26.23353,0 -47.5,-21.26647 -47.5,-47.5 0,-26.23353 21.26647,-47.5 47.5,-47.5 z m 0,19 c -15.74011,0 -28.5,12.75989 -28.5,28.5 0,15.74011 12.75989,30.5 28.5,30.5 15.74011,0 28.5,-14.75989 28.5,-30.5 0,-15.74011 -12.75989,-28.5 -28.5,-28.5 z"
         style="color:#000000;fill:#ffffff;fill-opacity:1;fill-rule:nonzero;stroke:none;stroke-width:50;marker:none;visibility:visible;display:inline;overflow:visible;enable-background:accumulate"
         inkscape:connector-curvature="0"
         sodipodi:nodetypes="ssssssssss" />
      <path
         sodipodi:nodetypes="ssssssccsscssccccssccc"
         inkscape:connector-curvature="0"
         id="path24748-0-4"
         d="m 412,-441.40625 c -3,0 -4,1 -4,4 l 0,125.15625 c 0,2.54936 1.57368,3.84375 4.03125,3.84375 l 34.46875,0 c 26.23353,0 47.5,-12.26647 47.5,-38.5 0,-15.08273 -7.41879,-29.0953 -22.75,-34.9375 0,0 12.47895,-7.37119 12.75,-22.5 -0.23961,-25.91569 -21.41542,-37.0625 -47.5,-37.0625 z m 15,19 9.5,0 c 15.74011,0 28.5,2.75989 28.5,18.5 0,7.50938 -3.28083,12.5053 -7.65625,15.78125 -9.30886,5.53565 -19.3433,3.71875 -30.34375,3.71875 z m 0,52 19.5,0 c 15.7401,0 28.5,7.7599 28.5,23.5 0,15.74011 -12.75989,21.5 -28.5,21.5 -6.47242,9e-5 -13.00655,0 -19.5,0 z"
         style="color:#000000;fill:#ffffff;fill-opacity:1;fill-rule:nonzero;stroke:none;stroke-width:50;marker:none;visibility:visible;display:inline;overflow:visible;enable-background:accumulate" />
      <path
         inkscape:connector-curvature="0"
         id="path9206-2-0-9-1"
         d="m 606.8125,-403.40625 c -2.69064,0 -3.73316,1.66812 -2.25,3.625 l 29.93779,42.4716 -31.93779,45.2784 c -1.48316,1.95688 -0.44064,3.625 2.25,3.625 l 16.15625,0 c 1.67394,0 2.62104,-0.85774 3.625,-2.28125 l 21.39685,-30.3222 21.41565,30.3222 c 1.00396,1.42351 1.95106,2.28125 3.625,2.28125 l 16.15625,0 c 2.69064,0 3.73316,-1.66812 2.25,-3.625 L 657.5,-357.3125 l 29.9375,-42.46875 c 1.48316,-1.95688 0.44064,-3.625 -2.25,-3.625 l -16.15625,0 c -1.67394,0 -2.62104,0.85773 -3.625,2.28125 l -19.40511,27.50802 -19.40739,-27.50802 c -1.00396,-1.42352 -1.95106,-2.28125 -3.625,-2.28125 z"
         style="color:#000000;fill:#ffffff;fill-opacity:1;fill-rule:nonzero;stroke:none;stroke-width:2;marker:none;visibility:visible;display:inline;overflow:visible;enable-background:accumulate"
         sodipodi:nodetypes="scccsscccsscccsscccss" />
    </g>
  </g>
</svg>
