<?xml version="1.0" encoding="UTF-8" standalone="no"?>
<!-- Created with Inkscape (http://www.inkscape.org/) -->

<svg
   xmlns:dc="http://purl.org/dc/elements/1.1/"
   xmlns:cc="http://creativecommons.org/ns#"
   xmlns:rdf="http://www.w3.org/1999/02/22-rdf-syntax-ns#"
   xmlns:svg="http://www.w3.org/2000/svg"
   xmlns="http://www.w3.org/2000/svg"
   xmlns:sodipodi="http://sodipodi.sourceforge.net/DTD/sodipodi-0.dtd"
   xmlns:inkscape="http://www.inkscape.org/namespaces/inkscape"
   id="svg12288"
   version="1.1"
   inkscape:version="0.48.2 r9819"
   width="80"
   height="22"
   sodipodi:docname="mapbox.svg"
   inkscape:export-filename="/Users/saman/work_repos/MapBoxiPad/graphic-assets/mapbox@2x.png"
   inkscape:export-xdpi="180"
   inkscape:export-ydpi="180">
  <metadata
     id="metadata12294">
    <rdf:RDF>
      <cc:Work
         rdf:about="">
        <dc:format>image/svg+xml</dc:format>
        <dc:type
           rdf:resource="http://purl.org/dc/dcmitype/StillImage" />
        <dc:title></dc:title>
      </cc:Work>
    </rdf:RDF>
  </metadata>
  <defs
     id="defs12292">
    <filter
       inkscape:collect="always"
       id="filter13277"
       x="-0.030694065"
       width="1.0613881"
       y="-0.11004637"
       height="1.2200927">
      <feGaussianBlur
         inkscape:collect="always"
         stdDeviation="7.8412443"
         id="feGaussianBlur13279" />
    </filter>
  </defs>
  <sodipodi:namedview
     pagecolor="#ffffff"
     bordercolor="#666666"
     borderopacity="1"
     objecttolerance="10"
     gridtolerance="10"
     guidetolerance="10"
     inkscape:pageopacity="0"
     inkscape:pageshadow="2"
     inkscape:window-width="1247"
     inkscape:window-height="613"
     id="namedview12290"
     showgrid="false"
     inkscape:zoom="1"
     inkscape:cx="34.827742"
     inkscape:cy="14.198289"
     inkscape:window-x="0"
     inkscape:window-y="0"
     inkscape:window-maximized="0"
     inkscape:current-layer="svg12288" />
  <path
     style="opacity:0.5;color:#000000;fill:#000000;fill-opacity:1;fill-rule:nonzero;stroke:#000000;stroke-width:1.50000000000000000;stroke-miterlimit:4;stroke-dasharray:none;marker:none;visibility:visible;display:inline;overflow:visible;enable-background:accumulate;stroke-opacity:1"
     clip-path="none"
     d="m 33.4375,2.96875 c -0.272593,0 -0.375,0.1024073 -0.375,0.375 l 0,11.375 c 0,0.231646 0.151695,0.34375 0.375,0.34375 l 3.125,0 c 2.383689,0 4.3125,-1.116311 4.3125,-3.5 0,-1.37048 -0.669442,-2.6254031 -2.0625,-3.15625 0,0 1.131621,-0.6878325 1.15625,-2.0625 -0.02177,-2.354809 -1.942345,-3.375 -4.3125,-3.375 l -2.21875,0 z M 3.1875,3 C 3.0469444,3.0383333 2.96875,3.1393055 2.96875,3.34375 l 0,11.375 c 0,0.272593 0.1024073,0.34375 0.375,0.34375 l 1,0 c 0.222099,0 0.3450328,-0.04896 0.375,-0.21875 l 0,-9.59375 3,5.3125 c 0.1204896,0.211989 0.2557716,0.311335 0.4375,0.3125 0.1817284,0.0012 0.3170104,-0.100511 0.4375,-0.3125 L 11.625,5.25 l 0,9.46875 c 0,0.272593 0.07116,0.34375 0.34375,0.34375 l 1,0 c 0.272593,0 0.375,-0.07116 0.375,-0.34375 l 0,-11.375 C 13.34375,3.0711573 13.241343,3 12.96875,3 l -1.5625,0 C 11.179583,3 11.06061,3.091612 10.9375,3.3125 l -2.78125,4.84375 -2.75,-4.875 C 5.3035144,3.1003557 5.2580662,3 5.03125,3 L 3.34375,3 C 3.2756018,3 3.2343519,2.9872222 3.1875,3 z m 31.59375,1.71875 0.875,0 c 1.430213,0 2.59375,0.2572872 2.59375,1.6875 0,0.682334 -0.321181,1.1085834 -0.71875,1.40625 -0.845842,0.5029925 -1.750453,0.34375 -2.75,0.34375 l 0,-3.4375 z M 18.9375,6.4375 c -2.383689,0 -4.3125,1.9288108 -4.3125,4.3125 0,2.383689 1.928811,4.312502 4.3125,4.3125 l 3.125,0 c 0.192511,-10e-7 0.28125,-0.146735 0.28125,-0.34375 l 0,-7.90625 c 0,-0.2725927 -0.102407,-0.375 -0.375,-0.375 l -3.03125,0 z m 5.40625,0 C 24.143721,6.4374709 24.0625,6.5427314 24.0625,6.78125 l 0,11.375 c 0,0.272593 0.100558,0.375001 0.375,0.375 l 1.03125,0 c 0.249777,0 0.312978,-0.130181 0.3125,-0.375 l 0,-3.09375 c 0.552146,0.0033 1.150129,-0.0024 1.6875,0 2.373487,0.0107 4.3125,-1.901148 4.3125,-4.3125 0,-2.3836892 -1.928812,-4.3149079 -4.3125,-4.3125 -1.048619,0.00106 -2.077505,1.817e-4 -3.125,0 z m 21.9375,0 c -2.383689,0 -4.3125,1.9288108 -4.3125,4.3125 0,2.383689 1.928811,4.3125 4.3125,4.3125 2.383689,0 4.3125,-1.928811 4.3125,-4.3125 0,-2.3836892 -1.928811,-4.3125 -4.3125,-4.3125 z m 4.84375,0 c -0.244483,0 -0.353516,0.1659396 -0.21875,0.34375 L 53.625,10.625 50.75,14.75 c -0.134766,0.17781 -0.05698,0.3125 0.1875,0.3125 l 1.46875,0 c 0.152101,0 0.252526,-0.05815 0.34375,-0.1875 l 1.9375,-2.78125 1.9375,2.78125 c 0.09122,0.129346 0.191649,0.1875 0.34375,0.1875 l 1.46875,0 c 0.244483,0 0.322266,-0.13469 0.1875,-0.3125 L 55.71875,10.625 58.4375,6.78125 C 58.572266,6.6034396 58.494483,6.4375 58.25,6.4375 l -1.46875,0 c -0.152101,0 -0.252526,0.089403 -0.34375,0.21875 l -1.75,2.5 -1.78125,-2.5 C 52.815026,6.526903 52.745851,6.4375 52.59375,6.4375 l -1.46875,0 z m -32.1875,1.71875 1.6875,0 0,0.625 0,4.125 0,0.625 -1.6875,0 c -1.430213,0 -2.59375,-1.351037 -2.59375,-2.78125 0,-1.430213 1.163537,-2.59375 2.59375,-2.59375 z m 6.84375,0 1.6875,0 c 1.430213,0 2.59375,1.163537 2.59375,2.59375 0,1.430213 -1.163537,2.78125 -2.59375,2.78125 l -1.6875,0 0,-5.375 z m 20.5,0 c 1.430213,0 2.59375,1.163537 2.59375,2.59375 0,1.430213 -1.163537,2.78125 -2.59375,2.78125 -1.430213,0 -2.59375,-1.351037 -2.59375,-2.78125 0,-1.430213 1.163537,-2.59375 2.59375,-2.59375 z m -11.5,1.28125 1.78125,0 c 1.430212,0 2.59375,0.694788 2.59375,2.125 0,1.430213 -1.163537,1.96875 -2.59375,1.96875 l -1.78125,0 0,-4.09375 z"
     id="path12487"
     inkscape:connector-curvature="0" />
  <g
     id="g25745-8-7"
     transform="matrix(0.09086422,0,0,0.09086422,-4.0137299,43.092303)"
     style="fill:#ffffff;fill-opacity:1;display:inline"
     inkscape:export-filename="/Users/saman/work_repos/graphics/mapbox/flyer/mapbox_flier_front_8.5x5.5.png"
     inkscape:export-xdpi="300"
     inkscape:export-ydpi="300">
    <path
       sodipodi:nodetypes="csssssccsccccsss"
       id="path24740-2-4"
       d="m 252.5,-403.39664 c -26.23353,0 -47.5,21.26647 -47.5,47.5 0,26.23353 21.26647,47.50004 47.5,47.50002 l 34.53125,-2e-5 c 2.11867,-1e-5 2.96875,-1.58176 2.96875,-3.75 l 0,-87.25 c 0,-3 -1,-4 -4,-4 z m 0,19 18.5,0 0,6.84375 0,45.3125 0,6.84375 -18.5,0 c -15.74011,0 -28.5,-14.75989 -28.5,-30.5 0,-15.74011 12.75989,-28.5 28.5,-28.5 z"
       clip-path="none"
       style="color:#000000;fill:#ffffff;fill-opacity:1;fill-rule:nonzero;stroke:none;stroke-width:50;marker:none;visibility:visible;display:inline;overflow:visible;enable-background:accumulate"
       inkscape:connector-curvature="0" />
    <path
       sodipodi:nodetypes="sssssccssscsssssscscscs"
       id="path24742-8-9"
       d="m 81,-441.39664 c -3,0 -4,1 -4,4 l 0,125 c 0,3 1,4 4,4 l 11.125,0 c 2.444295,0 3.545198,-0.69394 3.875,-2.5625 l 0,-105.4375 33.25,58.5 c 1.32604,2.33303 2.75,3.48718 4.75,3.5 2,0.0128 3.42396,-1.16697 4.75,-3.5 l 33.25,-58.5 0,104 c 0,3 1,4 4,4 l 11,0 c 3,0 4,-1 4,-4 l 0,-125 c 0,-3 -1,-4 -4,-4 l -17.125,0 c -2.49457,0 -4.14512,1.06903 -5.5,3.5 l -30.375,53.5 -30.4375,-53.59375 c -1.13065,-1.99082 -1.50429,-3.40625 -4.0005,-3.40625 z"
       style="color:#000000;fill:#ffffff;fill-opacity:1;fill-rule:nonzero;stroke:none;stroke-width:50;marker:none;visibility:visible;display:inline;overflow:visible;enable-background:accumulate"
       inkscape:connector-curvature="0" />
    <path
       sodipodi:nodetypes="sssscscsscssscsss"
       id="path24744-0-3"
       d="m 311.96875,-403.39664 c -2.20141,-3.2e-4 -2.96875,1.3125 -2.96875,3.9375 l 0,125.0625 c 0,3 0.99597,4 4.01632,3.99999 l 11.50957,0 c 2.7489,0 3.54605,-1.18066 3.54079,-3.875 L 328,-308.45914 c 6.0766,0.0365 12.586,0.0358 18.5,0.0625 26.12125,0.11774 47.5,-20.96203 47.5,-47.5 0,-26.23353 -21.26648,-47.5265 -47.5,-47.5 -11.54051,0.0117 -23.00312,0.002 -34.53125,0 z m 16.03125,19 18.5,0 c 15.74011,0 28.5,12.75989 28.5,28.5 0,15.74011 -12.75989,30.5 -28.5,30.5 l -18.5,0 z"
       clip-path="none"
       style="color:#000000;fill:#ffffff;fill-opacity:1;fill-rule:nonzero;stroke:none;stroke-width:50;marker:none;visibility:visible;display:inline;overflow:visible;enable-background:accumulate"
       inkscape:connector-curvature="0" />
    <path
       sodipodi:nodetypes="ssssssssss"
       inkscape:connector-curvature="0"
       style="color:#000000;fill:#ffffff;fill-opacity:1;fill-rule:nonzero;stroke:none;stroke-width:50;marker:none;visibility:visible;display:inline;overflow:visible;enable-background:accumulate"
       d="m 553.5,-403.39664 c 26.23353,0 47.5,21.26647 47.5,47.5 0,26.23353 -21.26647,47.5 -47.5,47.5 -26.23353,0 -47.5,-21.26647 -47.5,-47.5 0,-26.23353 21.26647,-47.5 47.5,-47.5 z m 0,19 c -15.74011,0 -28.5,12.75989 -28.5,28.5 0,15.74011 12.75989,30.5 28.5,30.5 15.74011,0 28.5,-14.75989 28.5,-30.5 0,-15.74011 -12.75989,-28.5 -28.5,-28.5 z"
       id="path24746-2-46"
       clip-path="none" />
    <path
       style="color:#000000;fill:#ffffff;fill-opacity:1;fill-rule:nonzero;stroke:none;stroke-width:50;marker:none;visibility:visible;display:inline;overflow:visible;enable-background:accumulate"
       d="m 412,-441.40625 c -3,0 -4,1 -4,4 l 0,125.15625 c 0,2.54936 1.57368,3.84375 4.03125,3.84375 l 34.46875,0 c 26.23353,0 47.5,-12.26647 47.5,-38.5 0,-15.08273 -7.41879,-29.0953 -22.75,-34.9375 0,0 12.47895,-7.37119 12.75,-22.5 -0.23961,-25.91569 -21.41542,-37.0625 -47.5,-37.0625 z m 15,19 9.5,0 c 15.74011,0 28.5,2.75989 28.5,18.5 0,7.50938 -3.28083,12.5053 -7.65625,15.78125 -9.30886,5.53565 -19.3433,3.71875 -30.34375,3.71875 z m 0,52 19.5,0 c 15.7401,0 28.5,7.7599 28.5,23.5 0,15.74011 -12.75989,21.5 -28.5,21.5 -6.47242,9e-5 -13.00655,0 -19.5,0 z"
       id="path24748-0-4"
       inkscape:connector-curvature="0"
       sodipodi:nodetypes="ssssssccsscssccccssccc" />
    <path
       sodipodi:nodetypes="scccsscccsscccsscccss"
       style="color:#000000;fill:#ffffff;fill-opacity:1;fill-rule:nonzero;stroke:none;stroke-width:2;marker:none;visibility:visible;display:inline;overflow:visible;enable-background:accumulate"
       d="m 606.8125,-403.40625 c -2.69064,0 -3.73316,1.66812 -2.25,3.625 l 29.93779,42.4716 -31.93779,45.2784 c -1.48316,1.95688 -0.44064,3.625 2.25,3.625 l 16.15625,0 c 1.67394,0 2.62104,-0.85774 3.625,-2.28125 l 21.39685,-30.3222 21.41565,30.3222 c 1.00396,1.42351 1.95106,2.28125 3.625,2.28125 l 16.15625,0 c 2.69064,0 3.73316,-1.66812 2.25,-3.625 L 657.5,-357.3125 l 29.9375,-42.46875 c 1.48316,-1.95688 0.44064,-3.625 -2.25,-3.625 l -16.15625,0 c -1.67394,0 -2.62104,0.85773 -3.625,2.28125 l -19.40511,27.50802 -19.40739,-27.50802 c -1.00396,-1.42352 -1.95106,-2.28125 -3.625,-2.28125 z"
       id="path9206-2-0-9-1"
       inkscape:connector-curvature="0" />
  </g>
</svg>
